<svg width="92" height="24" viewBox="0 0 92 24" fill="none" xmlns="http://www.w3.org/2000/svg">
<path d="M7.952 23.288C6.736 23.288 5.52 23.2453 4.304 23.16C3.10933 23.096 1.86133 22.9253 0.56 22.648V1.144C1.584 0.951999 2.704 0.813332 3.92 0.727999C5.136 0.621332 6.26667 0.567999 7.312 0.567999C8.72 0.567999 10.0107 0.674665 11.184 0.887999C12.3787 1.08 13.4027 1.42133 14.256 1.912C15.1093 2.40267 15.7707 3.05333 16.24 3.864C16.7307 4.65333 16.976 5.63467 16.976 6.808C16.976 8.57867 16.1227 9.976 14.416 11C15.824 11.5333 16.784 12.2587 17.296 13.176C17.808 14.0933 18.064 15.128 18.064 16.28C18.064 18.6053 17.2107 20.3547 15.504 21.528C13.8187 22.7013 11.3013 23.288 7.952 23.288ZM5.424 13.336V19.064C5.78667 19.1067 6.18133 19.1387 6.608 19.16C7.03467 19.1813 7.504 19.192 8.016 19.192C9.50933 19.192 10.7147 18.9787 11.632 18.552C12.5493 18.1253 13.008 17.336 13.008 16.184C13.008 15.16 12.624 14.4347 11.856 14.008C11.088 13.56 9.98933 13.336 8.56 13.336H5.424ZM5.424 9.528H7.856C9.392 9.528 10.4907 9.336 11.152 8.952C11.8133 8.54667 12.144 7.90667 12.144 7.032C12.144 6.136 11.8027 5.50667 11.12 5.144C10.4373 4.78133 9.43467 4.6 8.112 4.6C7.68533 4.6 7.22667 4.61067 6.736 4.632C6.24533 4.632 5.808 4.65333 5.424 4.696V9.528ZM37.484 14.552C37.484 15.8747 37.292 17.0907 36.908 18.2C36.524 19.288 35.9693 20.2267 35.244 21.016C34.5187 21.784 33.644 22.3813 32.62 22.808C31.6173 23.2347 30.4867 23.448 29.228 23.448C27.9907 23.448 26.86 23.2347 25.836 22.808C24.8333 22.3813 23.9693 21.784 23.244 21.016C22.5187 20.2267 21.9533 19.288 21.548 18.2C21.1427 17.0907 20.94 15.8747 20.94 14.552C20.94 13.2293 21.1427 12.024 21.548 10.936C21.9747 9.848 22.5507 8.92 23.276 8.152C24.0227 7.384 24.8973 6.78667 25.9 6.36C26.924 5.93333 28.0333 5.72 29.228 5.72C30.444 5.72 31.5533 5.93333 32.556 6.36C33.58 6.78667 34.4547 7.384 35.18 8.152C35.9053 8.92 36.4707 9.848 36.876 10.936C37.2813 12.024 37.484 13.2293 37.484 14.552ZM32.62 14.552C32.62 13.08 32.3213 11.928 31.724 11.096C31.148 10.2427 30.316 9.816 29.228 9.816C28.14 9.816 27.2973 10.2427 26.7 11.096C26.1027 11.928 25.804 13.08 25.804 14.552C25.804 16.024 26.1027 17.1973 26.7 18.072C27.2973 18.9253 28.14 19.352 29.228 19.352C30.316 19.352 31.148 18.9253 31.724 18.072C32.3213 17.1973 32.62 16.024 32.62 14.552ZM41.0175 1.976L45.7855 1.208V6.168H51.5135V10.136H45.7855V16.056C45.7855 17.0587 45.9562 17.8587 46.2975 18.456C46.6602 19.0533 47.3748 19.352 48.4415 19.352C48.9535 19.352 49.4762 19.3093 50.0095 19.224C50.5642 19.1173 51.0655 18.9787 51.5135 18.808L52.1855 22.52C51.6095 22.7547 50.9695 22.9573 50.2655 23.128C49.5615 23.2987 48.6975 23.384 47.6735 23.384C46.3722 23.384 45.2948 23.2133 44.4415 22.872C43.5882 22.5093 42.9055 22.0187 42.3935 21.4C41.8815 20.76 41.5188 19.992 41.3055 19.096C41.1135 18.2 41.0175 17.208 41.0175 16.12V1.976ZM78.2518 23C78.0171 22.232 77.7504 21.4427 77.4518 20.632C77.1744 19.8213 76.8971 19.0107 76.6198 18.2H67.9798C67.7024 19.0107 67.4144 19.8213 67.1158 20.632C66.8384 21.4427 66.5824 22.232 66.3478 23H61.1638C61.9958 20.6107 62.7851 18.4027 63.5318 16.376C64.2784 14.3493 65.0038 12.44 65.7078 10.648C66.4331 8.856 67.1371 7.16 67.8198 5.56C68.5238 3.93867 69.2491 2.36 69.9958 0.823999H74.7638C75.4891 2.36 76.2038 3.93867 76.9078 5.56C77.6118 7.16 78.3158 8.856 79.0198 10.648C79.7451 12.44 80.4811 14.3493 81.2278 16.376C81.9744 18.4027 82.7638 20.6107 83.5958 23H78.2518ZM72.2678 5.848C72.1611 6.168 72.0011 6.60533 71.7878 7.16C71.5744 7.71467 71.3291 8.35467 71.0518 9.08C70.7744 9.80533 70.4651 10.6053 70.1238 11.48C69.8038 12.3547 69.4731 13.272 69.1318 14.232H75.4358C75.0944 13.272 74.7638 12.3547 74.4438 11.48C74.1238 10.6053 73.8144 9.80533 73.5158 9.08C73.2384 8.35467 72.9931 7.71467 72.7798 7.16C72.5664 6.60533 72.3958 6.168 72.2678 5.848ZM86.4663 0.823999H91.4583V23H86.4663V0.823999Z" fill="#9785BA"/>
</svg>
